<?xml version="1.0" encoding="UTF-8"?>
<svg xmlns="http://www.w3.org/2000/svg" xmlns:xlink="http://www.w3.org/1999/xlink" width="2835" height="2835" viewBox="0 0 2835 2835">
<path fill-rule="evenodd" fill="rgb(100%, 100%, 100%)" fill-opacity="1" d="M 0 0.351562 L 2834.648438 0.351562 L 2834.648438 2835 L 0 2835 L 0 0.351562 "/>
<path fill-rule="evenodd" fill="rgb(0%, 67.771912%, 93.75%)" fill-opacity="1" d="M 2234.320312 897.679688 C 2234.320312 897.679688 1887.699219 1083.441406 1582.820312 1483.511719 C 1541.878906 1418.648438 1496.859375 1356.738281 1447.75 1298.558594 C 1668.320312 1049.269531 1953.359375 887.808594 2234.320312 897.679688 "/>
<path fill-rule="evenodd" fill="rgb(21.946716%, 44.309998%, 75.78125%)" fill-opacity="1" d="M 600.324219 897.679688 C 600.324219 897.679688 1091.980469 1161.488281 1419.148438 1735.699219 L 1555.03125 1526.019531 C 1326.25 1152.421875 960.222656 884.921875 600.324219 897.679688 "/>
<path fill-rule="evenodd" fill="rgb(21.946716%, 44.309998%, 75.78125%)" fill-opacity="1" d="M 611.09375 1096.71875 L 703.609375 1900.859375 C 972.949219 1879.835938 1208.03125 2002.402344 1417.058594 2230.671875 C 1626.140625 2002.402344 1860.800781 1879.753906 2130.140625 1900.859375 L 2223.078125 1096.71875 C 1891.738281 1189.148438 1585.628906 1601.988281 1417.058594 1857.921875 C 1248.589844 1601.949219 942.394531 1189.148438 611.09375 1096.71875 "/>
<path fill-rule="evenodd" fill="rgb(21.946716%, 44.309998%, 75.78125%)" fill-opacity="1" d="M 1227.519531 903.089844 L 1168.828125 858.910156 C 1157.261719 883.300781 1172.578125 896.921875 1170.109375 927 C 1168.828125 946.03125 1159.390625 959.21875 1149.46875 970.371094 C 1151.089844 974.109375 1150.75 978.199219 1147.859375 981.519531 L 1118.960938 1015.351562 C 1115.210938 1019.859375 1109.039062 1020.289062 1104.449219 1016.628906 C 1100.359375 1012.878906 1099.511719 1006.328125 1103.171875 1002.160156 L 1132.109375 968.320312 C 1135 965.011719 1139.511719 963.808594 1143.679688 965.011719 C 1151.519531 955.519531 1158.539062 943.511719 1160.238281 926.238281 C 1161.46875 908.058594 1146.148438 864.699219 1161.050781 853.550781 L 1109.429688 814.78125 L 1416.339844 604.679688 L 1725.730469 814.738281 L 1605.511719 903.890625 L 1605.511719 1035.179688 L 1227.519531 1035.179688 Z M 1416.300781 904.75 L 1416.300781 981.519531 L 1416.300781 904.75 "/>
</svg>
